<svg width="512" height="512" viewBox="0 0 512 512" fill="none" xmlns="http://www.w3.org/2000/svg">
  <defs>
    <linearGradient id="bg" x1="64" y1="56" x2="448" y2="456" gradientUnits="userSpaceOnUse">
      <stop stop-color="#132033"/>
      <stop offset="1" stop-color="#0B1220"/>
    </linearGradient>
    <linearGradient id="panel" x1="136" y1="120" x2="384" y2="392" gradientUnits="userSpaceOnUse">
      <stop stop-color="#253754"/>
      <stop offset="1" stop-color="#17243A"/>
    </linearGradient>
    <linearGradient id="arrow" x1="160" y1="332" x2="344" y2="164" gradientUnits="userSpaceOnUse">
      <stop stop-color="#5FD66D"/>
      <stop offset="1" stop-color="#B7F06A"/>
    </linearGradient>
    <filter id="shadow" x="40" y="40" width="432" height="432" filterUnits="userSpaceOnUse" color-interpolation-filters="sRGB">
      <feFlood flood-opacity="0" result="BackgroundImageFix"/>
      <feColorMatrix in="SourceAlpha" type="matrix" values="0 0 0 0 0 0 0 0 0 0 0 0 0 0 0 0 0 0 127 0" result="hardAlpha"/>
      <feOffset dy="12"/>
      <feGaussianBlur stdDeviation="12"/>
      <feComposite in2="hardAlpha" operator="out"/>
      <feColorMatrix type="matrix" values="0 0 0 0 0.0156863 0 0 0 0 0.0313726 0 0 0 0 0.0666667 0 0 0 0.45 0"/>
      <feBlend mode="normal" in2="BackgroundImageFix" result="effect1_dropShadow_1_1"/>
      <feBlend mode="normal" in="SourceGraphic" in2="effect1_dropShadow_1_1" result="shape"/>
    </filter>
  </defs>

  <rect width="512" height="512" rx="116" fill="url(#bg)"/>

  <g filter="url(#shadow)">
    <path d="M256 68L388 112V236C388 320 335 392 256 434C177 392 124 320 124 236V112L256 68Z" fill="#0F1B2D"/>
    <path d="M256 89L370 127V236C370 309 324 374 256 413C188 374 142 309 142 236V127L256 89Z" fill="url(#panel)"/>
    <path d="M198 170H314" stroke="#91A8C8" stroke-width="18" stroke-linecap="round" opacity="0.95"/>
    <path d="M198 222H286" stroke="#91A8C8" stroke-width="18" stroke-linecap="round" opacity="0.72"/>
    <path d="M198 274H262" stroke="#91A8C8" stroke-width="18" stroke-linecap="round" opacity="0.5"/>
    <path d="M190 310L241 258L272 289L331 230" stroke="url(#arrow)" stroke-width="28" stroke-linecap="round" stroke-linejoin="round"/>
    <path d="M309 230H356V277" stroke="url(#arrow)" stroke-width="28" stroke-linecap="round" stroke-linejoin="round"/>
  </g>

  <path d="M112 416C153 451 203 472 256 472C309 472 359 451 400 416" stroke="#233652" stroke-width="12" stroke-linecap="round" opacity="0.45"/>
</svg>
